<mxfile host="app.diagrams.net" modified="2023-12-31T14:40:54.996Z" agent="Mozilla/5.0 (Windows NT 10.0; Win64; x64) AppleWebKit/537.36 (KHTML, like Gecko) Chrome/120.0.0.0 Safari/537.36 Edg/120.0.0.0" etag="nHGeRJsIXPMFmWbTo6Ww" version="22.1.16" type="device">
  <diagram name="Page-1" id="kiWLOuEyL9WehnxS1dk0">
    <mxGraphModel dx="788" dy="549" grid="1" gridSize="5" guides="1" tooltips="1" connect="1" arrows="1" fold="1" page="1" pageScale="1" pageWidth="1100" pageHeight="850" math="1" shadow="0">
      <root>
        <mxCell id="0" />
        <mxCell id="1" parent="0" />
        <mxCell id="ZG1r2S1B5wGCzoCr1zXy-89" value="" style="group" vertex="1" connectable="0" parent="1">
          <mxGeometry x="380" y="275" width="340" height="300" as="geometry" />
        </mxCell>
        <mxCell id="ZG1r2S1B5wGCzoCr1zXy-80" value="" style="endArrow=classic;html=1;rounded=0;fillColor=#dae8fc;strokeColor=#6c8ebf;strokeWidth=2;dashed=1;dashPattern=1 1;" edge="1" parent="ZG1r2S1B5wGCzoCr1zXy-89">
          <mxGeometry width="50" height="50" relative="1" as="geometry">
            <mxPoint x="340" y="150" as="sourcePoint" />
            <mxPoint y="150" as="targetPoint" />
          </mxGeometry>
        </mxCell>
        <mxCell id="ZG1r2S1B5wGCzoCr1zXy-81" value="$$x [m]$$" style="edgeLabel;html=1;align=center;verticalAlign=middle;resizable=0;points=[];labelBackgroundColor=none;container=0;" vertex="1" connectable="0" parent="ZG1r2S1B5wGCzoCr1zXy-80">
          <mxGeometry x="0.8846" y="-4" relative="1" as="geometry">
            <mxPoint x="11" y="-9" as="offset" />
          </mxGeometry>
        </mxCell>
        <mxCell id="ZG1r2S1B5wGCzoCr1zXy-82" value="" style="endArrow=classic;html=1;rounded=0;fillColor=#dae8fc;strokeColor=#6c8ebf;strokeWidth=2;dashed=1;dashPattern=1 1;" edge="1" parent="ZG1r2S1B5wGCzoCr1zXy-89">
          <mxGeometry width="50" height="50" relative="1" as="geometry">
            <mxPoint x="170" y="300" as="sourcePoint" />
            <mxPoint x="170" as="targetPoint" />
          </mxGeometry>
        </mxCell>
        <mxCell id="ZG1r2S1B5wGCzoCr1zXy-83" value="$$y [m]$$" style="edgeLabel;html=1;align=center;verticalAlign=middle;resizable=0;points=[];labelBackgroundColor=none;container=0;" vertex="1" connectable="0" parent="ZG1r2S1B5wGCzoCr1zXy-82">
          <mxGeometry x="0.7316" y="1" relative="1" as="geometry">
            <mxPoint x="-19" y="-15" as="offset" />
          </mxGeometry>
        </mxCell>
        <mxCell id="ohyoiKfKWggCAtSfVyeH-49" value="" style="endArrow=classic;html=1;rounded=0;fillColor=#f8cecc;strokeColor=#b85450;" parent="ZG1r2S1B5wGCzoCr1zXy-89" edge="1">
          <mxGeometry width="50" height="50" relative="1" as="geometry">
            <mxPoint x="220.48000979785934" y="40" as="sourcePoint" />
            <mxPoint x="170.48000979785934" y="40" as="targetPoint" />
          </mxGeometry>
        </mxCell>
        <mxCell id="ohyoiKfKWggCAtSfVyeH-50" value="$$F_{x} [N]$$" style="edgeLabel;html=1;align=center;verticalAlign=middle;resizable=0;points=[];rotation=0;labelBackgroundColor=none;container=0;" parent="ohyoiKfKWggCAtSfVyeH-49" vertex="1" connectable="0">
          <mxGeometry x="0.1587" y="-3" relative="1" as="geometry">
            <mxPoint x="7" y="-7" as="offset" />
          </mxGeometry>
        </mxCell>
        <mxCell id="ohyoiKfKWggCAtSfVyeH-51" value="" style="endArrow=classic;html=1;rounded=0;fillColor=#f8cecc;strokeColor=#b85450;" parent="ZG1r2S1B5wGCzoCr1zXy-89" edge="1">
          <mxGeometry width="50" height="50" relative="1" as="geometry">
            <mxPoint x="170" y="138" as="sourcePoint" />
            <mxPoint x="170" y="40" as="targetPoint" />
          </mxGeometry>
        </mxCell>
        <mxCell id="ohyoiKfKWggCAtSfVyeH-52" value="$$F_{y} [N]$$" style="edgeLabel;html=1;align=center;verticalAlign=middle;resizable=0;points=[];rotation=0;labelBackgroundColor=none;container=0;" parent="ohyoiKfKWggCAtSfVyeH-51" vertex="1" connectable="0">
          <mxGeometry x="0.1587" y="-3" relative="1" as="geometry">
            <mxPoint x="-23" y="-1" as="offset" />
          </mxGeometry>
        </mxCell>
        <mxCell id="ohyoiKfKWggCAtSfVyeH-27" value="" style="endArrow=classic;html=1;rounded=0;fillColor=#f8cecc;strokeColor=#b85450;" parent="ZG1r2S1B5wGCzoCr1zXy-89" edge="1">
          <mxGeometry width="50" height="50" relative="1" as="geometry">
            <mxPoint x="165.48000979785957" y="154" as="sourcePoint" />
            <mxPoint x="220.48000979785957" y="40" as="targetPoint" />
          </mxGeometry>
        </mxCell>
        <mxCell id="ohyoiKfKWggCAtSfVyeH-29" value="$$F_{total} [N]$$" style="edgeLabel;html=1;align=center;verticalAlign=middle;resizable=0;points=[];rotation=0;labelBackgroundColor=none;container=0;" parent="ohyoiKfKWggCAtSfVyeH-27" vertex="1" connectable="0">
          <mxGeometry x="0.1587" y="-3" relative="1" as="geometry">
            <mxPoint x="26" y="2" as="offset" />
          </mxGeometry>
        </mxCell>
        <mxCell id="ohyoiKfKWggCAtSfVyeH-60" value="" style="endArrow=classic;html=1;rounded=0;fillColor=#f8cecc;strokeColor=#b85450;" parent="ZG1r2S1B5wGCzoCr1zXy-89" edge="1">
          <mxGeometry width="50" height="50" relative="1" as="geometry">
            <mxPoint x="170" y="165" as="sourcePoint" />
            <mxPoint x="170" y="247" as="targetPoint" />
          </mxGeometry>
        </mxCell>
        <mxCell id="ohyoiKfKWggCAtSfVyeH-61" value="$$F_{g} [N]$$" style="edgeLabel;html=1;align=center;verticalAlign=middle;resizable=0;points=[];rotation=0;labelBackgroundColor=none;container=0;" parent="ohyoiKfKWggCAtSfVyeH-60" vertex="1" connectable="0">
          <mxGeometry x="0.1587" y="-3" relative="1" as="geometry">
            <mxPoint x="-17" y="-13" as="offset" />
          </mxGeometry>
        </mxCell>
        <mxCell id="ohyoiKfKWggCAtSfVyeH-12" value="" style="rounded=0;whiteSpace=wrap;html=1;strokeColor=none;fillStyle=auto;fillColor=#000000;rotation=25;container=0;" parent="ZG1r2S1B5wGCzoCr1zXy-89" vertex="1">
          <mxGeometry x="138.48000979785957" y="143" width="60" height="20" as="geometry" />
        </mxCell>
        <mxCell id="ohyoiKfKWggCAtSfVyeH-13" value="" style="rounded=0;whiteSpace=wrap;html=1;strokeColor=none;fillColor=#000000;rotation=25;container=0;" parent="ZG1r2S1B5wGCzoCr1zXy-89" vertex="1">
          <mxGeometry x="88.48000979785962" y="139" width="170" height="10" as="geometry" />
        </mxCell>
        <mxCell id="ohyoiKfKWggCAtSfVyeH-14" value="" style="rounded=0;whiteSpace=wrap;html=1;strokeColor=none;fillColor=#000000;rotation=25;container=0;" parent="ZG1r2S1B5wGCzoCr1zXy-89" vertex="1">
          <mxGeometry x="246.78000979785952" y="153" width="10" height="24.69" as="geometry" />
        </mxCell>
        <mxCell id="ohyoiKfKWggCAtSfVyeH-16" value="" style="rounded=0;whiteSpace=wrap;html=1;strokeColor=none;fillColor=#000000;rotation=25;container=0;" parent="ZG1r2S1B5wGCzoCr1zXy-89" vertex="1">
          <mxGeometry x="101.48000979785962" y="86" width="10" height="24.69" as="geometry" />
        </mxCell>
        <mxCell id="ohyoiKfKWggCAtSfVyeH-18" value="" style="triangle;whiteSpace=wrap;html=1;rotation=-65;strokeColor=none;fillColor=#000000;container=0;" parent="ZG1r2S1B5wGCzoCr1zXy-89" vertex="1">
          <mxGeometry x="135.48000979785957" y="70" width="5" height="55" as="geometry" />
        </mxCell>
        <mxCell id="ohyoiKfKWggCAtSfVyeH-20" value="" style="triangle;whiteSpace=wrap;html=1;rotation=-65;strokeColor=none;fillColor=#000000;container=0;" parent="ZG1r2S1B5wGCzoCr1zXy-89" vertex="1">
          <mxGeometry x="86.48000979785962" y="47" width="5" height="55" as="geometry" />
        </mxCell>
        <mxCell id="ohyoiKfKWggCAtSfVyeH-21" value="" style="triangle;whiteSpace=wrap;html=1;rotation=-65;strokeColor=none;fillColor=#000000;container=0;" parent="ZG1r2S1B5wGCzoCr1zXy-89" vertex="1">
          <mxGeometry x="281.48000979785957" y="137" width="5" height="55" as="geometry" />
        </mxCell>
        <mxCell id="ohyoiKfKWggCAtSfVyeH-22" value="" style="triangle;whiteSpace=wrap;html=1;rotation=-65;strokeColor=none;fillColor=#000000;container=0;" parent="ZG1r2S1B5wGCzoCr1zXy-89" vertex="1">
          <mxGeometry x="230.48000979785957" y="113" width="5" height="55" as="geometry" />
        </mxCell>
        <mxCell id="ohyoiKfKWggCAtSfVyeH-24" value="" style="curved=1;endArrow=none;html=1;rounded=0;endFill=0;strokeWidth=4;" parent="ZG1r2S1B5wGCzoCr1zXy-89" edge="1">
          <mxGeometry width="50" height="50" relative="1" as="geometry">
            <mxPoint x="104.48000979785962" y="163" as="sourcePoint" />
            <mxPoint x="156.48000979785957" y="148" as="targetPoint" />
            <Array as="points">
              <mxPoint x="119.48000979785962" y="131" />
            </Array>
          </mxGeometry>
        </mxCell>
        <mxCell id="ohyoiKfKWggCAtSfVyeH-25" value="" style="curved=1;endArrow=none;html=1;rounded=0;endFill=0;strokeWidth=4;" parent="ZG1r2S1B5wGCzoCr1zXy-89" edge="1">
          <mxGeometry width="50" height="50" relative="1" as="geometry">
            <mxPoint x="204.48000979785957" y="208" as="sourcePoint" />
            <mxPoint x="183.48000979785957" y="159" as="targetPoint" />
            <Array as="points">
              <mxPoint x="218.48000979785957" y="178" />
            </Array>
          </mxGeometry>
        </mxCell>
      </root>
    </mxGraphModel>
  </diagram>
</mxfile>
